<svg width="639.569336" height="330.618469" viewBox="0 0 639.569 330.618" fill="none" xmlns="http://www.w3.org/2000/svg" xmlns:xlink="http://www.w3.org/1999/xlink">
	<desc>
			Created with Pixso.
	</desc>
	<defs>
		<clipPath id="clip13_25">
			<rect id="Frame" width="229.580933" height="130.309875" transform="translate(0.000000 217.766815) rotate(-30.000000)" fill="white" fill-opacity="0"/>
		</clipPath>
		<clipPath id="clip13_44">
			<rect id="Frame" width="88.410027" height="232.458603" transform="matrix(0.820876 -0.571106 -0.571106 -0.820876 566.996 241.311)" fill="white" fill-opacity="0"/>
		</clipPath>
	</defs>
	<rect id="Frame" width="229.580933" height="130.309875" transform="translate(0.000000 217.766815) rotate(-30.000000)" fill="#FFFFFF" fill-opacity="0"/>
	<g clip-path="url(#clip13_25)">
		<path id="Vector" d="M173.842 168.175C175.441 166.373 177.473 165.143 179.646 164.139C185.093 161.622 190.774 159.772 196.604 158.364C203.282 156.753 210.025 155.526 216.877 154.932C217.939 154.839 219.017 154.945 220.088 154.953C220.11 155.122 220.141 155.293 220.162 155.462C219.594 155.596 219.032 155.808 218.453 155.86C208.832 156.729 199.39 158.518 190.134 161.302C186.003 162.546 182.009 164.156 178.211 166.204C177.254 166.719 176.438 167.478 175.521 168.076C175.094 168.355 174.598 168.528 174.134 168.746C174.032 168.56 173.936 168.371 173.842 168.175Z" fill="#000000" fill-opacity="0.750000" fill-rule="nonzero"/>
		<path id="Vector" d="M212.271 161.242C216.694 158.581 221.837 157.645 226.762 155.692C224.219 153.253 221.003 152.061 218.766 149.338C220.354 149.557 226.166 153.27 229.509 156.126C226.486 157.105 223.62 157.995 220.776 158.959C218.003 159.902 215.261 160.921 212.504 161.904C212.425 161.68 212.348 161.461 212.271 161.242Z" fill="#000000" fill-opacity="0.750000" fill-rule="nonzero"/>
		<path id="Vector" d="M152.858 252.987C154.103 253.272 154.133 254.183 154.013 255.193C153.948 255.744 153.742 256.397 153.939 256.847C154.897 258.985 154.028 260.51 152.461 261.859C152.187 262.1 151.897 262.317 151.649 262.517C151.603 262.719 151.526 262.87 151.556 262.997C152.403 266.767 149.759 269.673 146.521 270.539C144.885 270.976 143.263 271.273 141.561 270.976C138.995 270.531 136.953 269.514 136.473 266.606C134.45 266.243 132.222 266.457 131.019 264.341C130.357 263.174 129.871 261.962 130.492 260.637C127.906 258.223 127.849 257.754 129.638 253.974C128.474 251.296 127.346 248.604 126.131 245.956C125.756 245.144 125.464 244.29 124.227 244.114C117.21 243.129 112.403 239.029 109.247 232.911C106.02 226.657 105.016 219.998 106.798 213.155C108.411 206.954 112.351 202.359 117.639 198.817C123.604 194.821 130.104 193.684 137.08 194.944C142.055 195.848 146.688 197.638 150.4 201.166C156.746 207.193 159.382 214.615 158.323 223.331C157.645 228.891 155.289 233.644 151.497 237.734C150.96 238.314 150.555 239.012 150.078 239.664C150.871 241.646 151.698 243.514 152.368 245.435C153.191 247.783 152.949 248.343 150.655 249.322C149.388 249.866 148.037 250.232 146.698 250.585C141.974 251.832 137.259 253.105 132.501 254.209C131.08 254.54 130.411 255.522 129.774 256.504C128.976 257.75 130.103 259.3 131.739 259.309C132.457 259.315 133.209 259.182 133.896 258.961C139.382 257.217 144.988 255.793 150.122 253.093C151.089 252.584 152.063 252.034 152.901 251.344C153.509 250.843 153.894 250.075 154.339 249.479C154.927 250.3 154.934 250.91 154.143 251.8C153.767 252.224 153.332 252.601 152.927 252.997C146.502 256.186 139.827 258.717 132.82 260.303C131.812 260.534 131.489 260.996 131.768 262.172C132.568 262.148 133.373 262.248 134.112 262.072C138.369 261.07 142.651 260.122 146.842 258.894C148.623 258.374 150.309 257.338 151.869 256.293C152.941 255.586 153.844 254.475 152.858 252.987ZM143.709 250.165C145.82 249.586 147.952 249.095 150.021 248.397C151.699 247.829 151.869 247.373 151.308 245.803C150.845 244.502 150.372 243.182 149.71 241.971C148.652 240.041 149.123 238.478 150.564 237.031C150.821 236.769 151.078 236.508 151.312 236.229C157.413 228.968 159.034 220.737 156.074 211.808C153.377 203.681 147.463 198.728 139.261 196.583C129.559 194.042 120.995 196.233 113.882 203.382C110.524 206.757 108.086 210.693 107.446 215.572C106.477 222.931 107.939 229.657 112.363 235.69C115.363 239.779 119.267 242.367 124.345 242.961C125.617 243.111 126.331 243.696 126.808 244.782C127.6 246.589 128.396 248.393 129.229 250.183C129.747 251.295 130.329 252.37 130.906 253.511C133.04 252.894 134.983 252.337 136.88 251.787C136.903 251.535 136.97 251.378 136.926 251.259C135.562 247.561 134.302 243.823 132.786 240.188C131.382 236.822 129.131 234.063 125.957 232.119C124.841 231.434 123.746 230.68 122.744 229.835C119.699 227.265 119.998 224.633 123.494 222.747C123.686 222.643 123.889 222.55 124.094 222.47C126.032 221.689 128.161 221.551 130.091 220.657C130.794 220.332 131.824 220.597 132.676 220.745C133.227 220.841 133.735 221.212 134.108 221.392C136.596 218.181 137.67 218.075 141.438 220.409C141.848 220.173 142.28 219.911 142.723 219.667C144.766 218.557 146.103 218.97 147.233 221.027C148.382 223.124 147.677 225.043 146.531 226.796C145.499 228.376 144.344 229.928 143.017 231.258C140.791 233.497 140.503 236.084 141.147 238.949C141.991 242.639 142.836 246.329 143.709 250.165ZM126.832 222.814C125.891 223.094 125.107 223.227 124.416 223.55C121.247 225.035 120.995 226.88 123.692 229.13C124.81 230.066 126.048 230.863 127.275 231.653C129.794 233.279 131.768 235.414 133.062 238.091C134.169 240.388 135.083 242.776 136 245.157C136.773 247.182 137.427 249.257 138.185 251.473C139.785 251.094 141.17 250.766 142.648 250.414C142.52 249.692 142.441 249.122 142.309 248.565C141.57 245.516 140.768 242.486 140.076 239.429C139.334 236.145 139.45 233.023 142.154 230.514C142.685 230.02 143.172 229.463 143.589 228.871C144.509 227.562 145.422 226.244 146.247 224.871C146.85 223.871 146.754 222.76 146.336 221.689C145.878 220.505 145.005 219.981 143.997 220.267C142.631 220.649 142.1 221.445 142.307 222.793C142.354 223.08 142.455 223.366 142.471 223.652C142.526 224.705 142.026 225.338 141.187 225.296C140.322 225.256 139.847 224.615 139.98 223.609C140.029 223.248 140.122 222.887 140.245 222.547C140.577 221.621 140.176 221.025 139.444 220.507C137.819 219.356 136.452 219.844 135.646 221.903C136.099 222.469 136.577 223.015 136.996 223.601C137.49 224.294 137.833 225.137 137.133 225.793C136.655 226.237 135.734 226.694 135.258 226.511C134.652 226.277 134.107 225.463 133.879 224.786C133.645 224.075 133.817 223.222 133.815 222.295C132.422 221.958 131.137 221.176 129.753 222.125C130.328 223.122 130.932 223.96 131.315 224.886C131.787 226.019 131.354 227.04 130.512 227.872C129.737 228.639 128.308 228.9 127.464 228.471C126.369 227.911 126.226 226.89 126.304 225.841C126.371 224.981 126.595 224.13 126.832 222.814ZM153.141 257.083C146.698 261.21 139.255 261.995 131.985 263.702C133.091 265.366 134.717 265.424 136.277 265.182C139.728 264.639 143.165 263.977 146.584 263.239C147.922 262.95 149.226 262.404 150.468 261.818C152.701 260.755 153.467 259.353 153.141 257.083ZM137.663 266.42C137.823 268.197 138.918 269.07 140.51 269.569C143.018 270.36 145.43 269.952 147.734 268.948C149.874 268.014 151.018 265.453 150.561 263.434C146.273 264.428 141.979 265.421 137.663 266.42ZM129.607 224.047C129.479 223.977 128.963 223.484 128.439 223.479C128.169 223.478 127.825 224.317 127.635 224.822C127.482 225.211 127.391 225.703 127.496 226.094C127.626 226.59 127.883 227.295 128.25 227.421C128.673 227.566 129.409 227.31 129.773 226.974C130.566 226.24 130.523 225.318 129.607 224.047ZM135.317 225.668C136.568 224.381 136.553 224.321 134.873 223.453C135.021 224.189 135.134 224.764 135.317 225.668Z" fill="#000000" fill-opacity="0.750000" fill-rule="nonzero"/>
		<path id="Vector" d="M91.0752 260.061C88.418 263.27 85.9512 266.569 84.4053 270.454C82.8809 274.288 82.0693 278.282 81.7754 282.391C81.4795 286.538 81.4766 290.673 82.1445 294.873C84.4414 290.605 85.3945 285.671 88.7373 281.978C86.4385 288.034 83.6777 293.9 81.9248 300.456C81.0518 297.292 78.2607 295.967 76.4873 293.754C75.8672 292.984 75.21 292.247 74.749 291.308C77.1494 292.293 78.4736 294.565 80.8096 296.177C80.7939 295.314 80.8184 294.704 80.7607 294.104C80.1787 287.741 80.2637 281.413 81.7383 275.155C82.9854 269.863 85.3242 265.125 88.9844 261.067C89.7041 260.282 89.6904 260.271 91.0752 260.061Z" fill="#000000" fill-opacity="0.750000" fill-rule="nonzero"/>
		<path id="Vector" d="M222.265 239.911C218.446 240.522 214.961 241.08 211.263 241.671C212.1 240.078 213.615 240.282 214.825 239.954C216.142 239.595 217.494 239.385 219.316 239.01C215.536 237.85 212.232 236.734 208.875 235.83C204.93 234.765 200.962 233.738 196.948 232.957C194.166 232.418 191.303 232.12 188.468 232.088C186.725 232.066 184.975 232.751 183.116 233.139C182.842 232.489 183.472 232.201 183.909 231.948C185.909 230.818 188.144 230.701 190.312 230.936C193.79 231.311 197.311 231.694 200.686 232.574C207.042 234.23 213.31 236.243 219.617 238.096C219.729 238.126 219.878 238.027 220.273 237.918C219.323 235.349 217.531 233.223 216.619 230.676C219.635 233.031 220.998 236.371 222.265 239.911Z" fill="#000000" fill-opacity="0.750000" fill-rule="nonzero"/>
		<path id="Vector" d="M152.242 136.337C154.635 132.822 157.024 129.323 159.509 125.674C160.822 127.362 161.119 129.562 162.034 131.461C162.963 133.384 163.736 135.377 164.379 137.433C162.669 135.711 161.694 133.577 160.63 130.898C156.839 141.887 153.712 152.518 153.75 163.861C152.479 163.918 152.619 163.065 152.65 162.52C152.797 159.895 152.929 157.266 153.244 154.663C154.177 146.999 156.507 139.683 158.922 132.392C159.15 131.702 159.518 131.057 159.826 130.396C160.212 129.565 160.125 128.85 159.303 128.24C157.081 131.009 155.63 134.362 152.769 136.597C152.713 136.642 152.521 136.483 152.242 136.337Z" fill="#000000" fill-opacity="0.750000" fill-rule="nonzero"/>
		<path id="Vector" d="M96.5205 198.678C95.4463 199.079 94.9238 198.314 94.2695 197.952C89.8623 195.522 85.5186 192.975 81.0283 190.706C78.3174 189.335 75.3828 188.402 72.2168 187.144C72.5498 189.122 74.0117 190.341 73.708 192.454C72.2842 191.194 72.0605 189.579 71.1484 188.444C70.2197 187.293 69.3701 186.059 68.3018 185.057C67.209 184.032 65.8955 183.235 64.5791 182.27C70.9209 182.585 77.1211 182.895 83.3672 183.208C81.9287 184.127 81.7529 184.172 76.3037 184.075C73.9014 184.032 71.5059 183.86 68.9971 183.74C69.6289 185.019 70.5283 185.653 71.8184 186.019C79.8232 188.303 87.1377 192.096 94.1484 196.504C95.0186 197.055 96.0781 197.478 96.5205 198.678Z" fill="#000000" fill-opacity="0.750000" fill-rule="nonzero"/>
		<path id="Vector" d="M31.9189 261.329C33.501 260.19 35.0205 258.955 36.6699 257.921C46.6064 251.72 57.1992 246.796 67.8633 242.007C68.0029 241.945 68.2539 242.12 68.5205 242.211C68.3711 243.332 67.3809 243.496 66.6611 243.836C63.4971 245.33 60.2969 246.751 57.1084 248.203C49.7119 251.57 42.7266 255.691 35.7471 259.834C34.582 260.531 33.6689 261.698 31.9189 261.329Z" fill="#000000" fill-opacity="0.750000" fill-rule="nonzero"/>
		<path id="Vector" d="M27.2148 264.904C27.9688 261.245 33.8555 253.907 39.6641 249.192C39.4395 250.476 38.9482 251.223 37.6104 252.686C35.3447 255.161 33.084 257.645 30.8955 260.188C30.0996 261.112 29.5166 262.22 28.6318 263.546C32.6875 263.563 36.1748 262.39 39.8008 261.488C39.7734 261.962 39.8242 262.322 39.7432 262.356C35.8076 264.045 31.6562 264.698 27.2148 264.904Z" fill="#000000" fill-opacity="0.750000" fill-rule="nonzero"/>
		<path id="Vector" d="M165.119 206.291C169.791 201.976 174.355 197.508 180.775 195.797C180.878 195.92 180.987 196.044 181.09 196.167C180.854 196.454 180.671 196.898 180.365 196.999C175.042 198.837 171.015 202.618 166.726 206.01C166.342 206.312 165.875 206.513 165.446 206.76C165.342 206.601 165.233 206.445 165.119 206.291Z" fill="#000000" fill-opacity="0.750000" fill-rule="nonzero"/>
		<path id="Vector" d="M125.86 185.778C125.301 183.636 124.624 181.518 124.219 179.35C123.735 176.775 123.467 174.158 123.166 171.552C123.09 170.888 123.014 170.06 124.284 169.828C123.969 175.31 126.038 180.382 126.409 185.675C126.226 185.705 126.045 185.74 125.86 185.778Z" fill="#000000" fill-opacity="0.750000" fill-rule="nonzero"/>
		<path id="Vector" d="M80.6797 211.06C81.1914 210.947 81.71 210.704 82.208 210.742C86.0986 211.08 89.9482 211.599 93.5205 213.256C93.4922 213.404 93.4648 213.551 93.4326 213.702C89.2275 212.981 85.0205 212.255 80.8154 211.534C80.7695 211.378 80.7207 211.218 80.6797 211.06Z" fill="#000000" fill-opacity="0.750000" fill-rule="nonzero"/>
		<path id="Vector" d="M179.46 228.056C179.076 228.227 178.766 228.482 178.471 228.471C176.612 228.414 167.121 225.458 165.917 224.61C167.462 224.408 177.901 227.018 179.46 228.056Z" fill="#000000" fill-opacity="0.750000" fill-rule="nonzero"/>
		<path id="Vector" d="M150.523 186.736C152.216 182.736 155.698 179.164 158.709 178.479C158.375 180.008 156.711 180.016 156.026 181.057C155.279 182.197 154.254 183.159 153.351 184.201C152.516 185.166 151.682 186.124 150.847 187.089C150.735 186.972 150.631 186.857 150.523 186.736Z" fill="#000000" fill-opacity="0.750000" fill-rule="nonzero"/>
		<path id="Vector" d="M100.135 234.533C97.9189 237.832 95.2725 240.289 92.7949 242.886C92.6943 242.994 92.3018 242.825 92.0049 242.777C93.0264 240.669 97.9639 235.586 100.135 234.533Z" fill="#000000" fill-opacity="0.750000" fill-rule="nonzero"/>
		<path id="Vector" d="M105.705 193.337C102.718 191.336 99.7334 189.34 96.7598 187.318C96.6562 187.246 96.7266 186.923 96.6963 186.383C100.583 187.714 103.23 190.388 105.993 192.902C105.899 193.044 105.804 193.193 105.705 193.337Z" fill="#000000" fill-opacity="0.750000" fill-rule="nonzero"/>
	</g>
	<g clip-path="url(#clip13_44)">
		<path id="Vector" d="M558.617 74.464C557.559 73.4169 556.336 72.4969 555.481 71.3071C547.574 60.2258 537.438 51.5526 526.623 43.655C516.986 36.6122 506.597 31.0748 495.267 27.6854C490.857 26.3688 486.34 25.4869 481.449 24.2972C486.126 20.3107 491.617 17.3617 493.805 11.1098C489.401 14.6712 485.285 18.683 480.52 21.6666C475.745 24.6565 470.318 26.6336 464.718 29.272C473.349 33.4047 482.989 35.7155 487.868 45.3911C488.625 40.2031 485.755 37.4842 471.564 29.28C474.041 27.5709 476.288 26.1597 479.481 26.5656C497.423 28.8264 513.309 36.4047 527.913 47.3354C536.446 53.7223 544.206 61.0339 551.191 69.0778C558.292 77.249 564.72 85.9165 570.145 95.4061C577.542 108.322 583.603 121.712 587.674 135.933C592.488 152.762 594.513 169.804 592 186.905C589.211 205.967 581.768 222.791 568.668 236.621C567.868 237.468 567.142 238.402 566.44 239.333C566.298 239.529 566.383 239.898 566.348 240.379C567.669 241.327 568.477 240.281 569.213 239.534C576.482 232.18 582.17 223.673 586.485 214.184C595.35 194.725 596.902 174.075 593.697 152.654C591.14 135.569 585.152 119.527 577.639 103.953C576.319 101.22 574.347 98.803 572.778 96.1874C572.104 95.066 571.719 93.7709 571.2 92.569C567.015 86.533 562.819 80.5032 558.617 74.464Z" fill="#000000" fill-opacity="0.600000" fill-rule="nonzero"/>
	</g>
</svg>
