<svg width="509.000000" height="642.000000" viewBox="0 0 509 642" fill="none" xmlns="http://www.w3.org/2000/svg" xmlns:xlink="http://www.w3.org/1999/xlink">
	<desc>
			Created with Pixso.
	</desc>
	<defs>
		<filter id="filter_12_3_dd" x="0.000000" y="389.000000" width="377.000000" height="253.000000" filterUnits="userSpaceOnUse" color-interpolation-filters="sRGB">
			<feFlood flood-opacity="0" result="BackgroundImageFix"/>
			<feColorMatrix in="SourceAlpha" type="matrix" values="0 0 0 0 0 0 0 0 0 0 0 0 0 0 0 0 0 0 127 0" result="hardAlpha"/>
			<feOffset dx="0" dy="2.76726"/>
			<feGaussianBlur stdDeviation="0.737935"/>
			<feComposite in2="hardAlpha" operator="out" k2="-1" k3="1"/>
			<feColorMatrix type="matrix" values="0 0 0 0 0 0 0 0 0 0 0 0 0 0 0 0 0 0 0.02 0"/>
			<feBlend mode="normal" in2="BackgroundImageFix" result="effect_dropShadow_1"/>
			<feColorMatrix in="SourceAlpha" type="matrix" values="0 0 0 0 0 0 0 0 0 0 0 0 0 0 0 0 0 0 127 0" result="hardAlpha"/>
			<feOffset dx="0" dy="6.6501"/>
			<feGaussianBlur stdDeviation="1.77336"/>
			<feComposite in2="hardAlpha" operator="out" k2="-1" k3="1"/>
			<feColorMatrix type="matrix" values="0 0 0 0 0 0 0 0 0 0 0 0 0 0 0 0 0 0 0.027 0"/>
			<feBlend mode="normal" in2="effect_dropShadow_1" result="effect_dropShadow_2"/>
			<feColorMatrix in="SourceAlpha" type="matrix" values="0 0 0 0 0 0 0 0 0 0 0 0 0 0 0 0 0 0 127 0" result="hardAlpha"/>
			<feOffset dx="0" dy="12.5216"/>
			<feGaussianBlur stdDeviation="3.33908"/>
			<feComposite in2="hardAlpha" operator="out" k2="-1" k3="1"/>
			<feColorMatrix type="matrix" values="0 0 0 0 0 0 0 0 0 0 0 0 0 0 0 0 0 0 0.035 0"/>
			<feBlend mode="normal" in2="effect_dropShadow_2" result="effect_dropShadow_3"/>
			<feColorMatrix in="SourceAlpha" type="matrix" values="0 0 0 0 0 0 0 0 0 0 0 0 0 0 0 0 0 0 127 0" result="hardAlpha"/>
			<feOffset dx="0" dy="22.3363"/>
			<feGaussianBlur stdDeviation="5.95635"/>
			<feComposite in2="hardAlpha" operator="out" k2="-1" k3="1"/>
			<feColorMatrix type="matrix" values="0 0 0 0 0 0 0 0 0 0 0 0 0 0 0 0 0 0 0.043 0"/>
			<feBlend mode="normal" in2="effect_dropShadow_3" result="effect_dropShadow_4"/>
			<feColorMatrix in="SourceAlpha" type="matrix" values="0 0 0 0 0 0 0 0 0 0 0 0 0 0 0 0 0 0 127 0" result="hardAlpha"/>
			<feOffset dx="0" dy="41.7776"/>
			<feGaussianBlur stdDeviation="11.1407"/>
			<feComposite in2="hardAlpha" operator="out" k2="-1" k3="1"/>
			<feColorMatrix type="matrix" values="0 0 0 0 0 0 0 0 0 0 0 0 0 0 0 0 0 0 0.051 0"/>
			<feBlend mode="normal" in2="effect_dropShadow_4" result="effect_dropShadow_5"/>
			<feColorMatrix in="SourceAlpha" type="matrix" values="0 0 0 0 0 0 0 0 0 0 0 0 0 0 0 0 0 0 127 0" result="hardAlpha"/>
			<feOffset dx="0" dy="100"/>
			<feGaussianBlur stdDeviation="26.6667"/>
			<feComposite in2="hardAlpha" operator="out" k2="-1" k3="1"/>
			<feColorMatrix type="matrix" values="0 0 0 0 0 0 0 0 0 0 0 0 0 0 0 0 0 0 0.071 0"/>
			<feBlend mode="normal" in2="effect_dropShadow_5" result="effect_dropShadow_6"/>
			<feBlend mode="normal" in="SourceGraphic" in2="effect_dropShadow_6" result="shape"/>
		</filter>
		<filter id="filter_13_48_dd" x="74.000000" y="0.000000" width="435.000000" height="253.000000" filterUnits="userSpaceOnUse" color-interpolation-filters="sRGB">
			<feFlood flood-opacity="0" result="BackgroundImageFix"/>
			<feColorMatrix in="SourceAlpha" type="matrix" values="0 0 0 0 0 0 0 0 0 0 0 0 0 0 0 0 0 0 127 0" result="hardAlpha"/>
			<feOffset dx="0" dy="2.76726"/>
			<feGaussianBlur stdDeviation="0.737935"/>
			<feComposite in2="hardAlpha" operator="out" k2="-1" k3="1"/>
			<feColorMatrix type="matrix" values="0 0 0 0 0 0 0 0 0 0 0 0 0 0 0 0 0 0 0.02 0"/>
			<feBlend mode="normal" in2="BackgroundImageFix" result="effect_dropShadow_1"/>
			<feColorMatrix in="SourceAlpha" type="matrix" values="0 0 0 0 0 0 0 0 0 0 0 0 0 0 0 0 0 0 127 0" result="hardAlpha"/>
			<feOffset dx="0" dy="6.6501"/>
			<feGaussianBlur stdDeviation="1.77336"/>
			<feComposite in2="hardAlpha" operator="out" k2="-1" k3="1"/>
			<feColorMatrix type="matrix" values="0 0 0 0 0 0 0 0 0 0 0 0 0 0 0 0 0 0 0.027 0"/>
			<feBlend mode="normal" in2="effect_dropShadow_1" result="effect_dropShadow_2"/>
			<feColorMatrix in="SourceAlpha" type="matrix" values="0 0 0 0 0 0 0 0 0 0 0 0 0 0 0 0 0 0 127 0" result="hardAlpha"/>
			<feOffset dx="0" dy="12.5216"/>
			<feGaussianBlur stdDeviation="3.33908"/>
			<feComposite in2="hardAlpha" operator="out" k2="-1" k3="1"/>
			<feColorMatrix type="matrix" values="0 0 0 0 0 0 0 0 0 0 0 0 0 0 0 0 0 0 0.035 0"/>
			<feBlend mode="normal" in2="effect_dropShadow_2" result="effect_dropShadow_3"/>
			<feColorMatrix in="SourceAlpha" type="matrix" values="0 0 0 0 0 0 0 0 0 0 0 0 0 0 0 0 0 0 127 0" result="hardAlpha"/>
			<feOffset dx="0" dy="22.3363"/>
			<feGaussianBlur stdDeviation="5.95635"/>
			<feComposite in2="hardAlpha" operator="out" k2="-1" k3="1"/>
			<feColorMatrix type="matrix" values="0 0 0 0 0 0 0 0 0 0 0 0 0 0 0 0 0 0 0.043 0"/>
			<feBlend mode="normal" in2="effect_dropShadow_3" result="effect_dropShadow_4"/>
			<feColorMatrix in="SourceAlpha" type="matrix" values="0 0 0 0 0 0 0 0 0 0 0 0 0 0 0 0 0 0 127 0" result="hardAlpha"/>
			<feOffset dx="0" dy="41.7776"/>
			<feGaussianBlur stdDeviation="11.1407"/>
			<feComposite in2="hardAlpha" operator="out" k2="-1" k3="1"/>
			<feColorMatrix type="matrix" values="0 0 0 0 0 0 0 0 0 0 0 0 0 0 0 0 0 0 0.051 0"/>
			<feBlend mode="normal" in2="effect_dropShadow_4" result="effect_dropShadow_5"/>
			<feColorMatrix in="SourceAlpha" type="matrix" values="0 0 0 0 0 0 0 0 0 0 0 0 0 0 0 0 0 0 127 0" result="hardAlpha"/>
			<feOffset dx="0" dy="100"/>
			<feGaussianBlur stdDeviation="26.6667"/>
			<feComposite in2="hardAlpha" operator="out" k2="-1" k3="1"/>
			<feColorMatrix type="matrix" values="0 0 0 0 0 0 0 0 0 0 0 0 0 0 0 0 0 0 0.071 0"/>
			<feBlend mode="normal" in2="effect_dropShadow_5" result="effect_dropShadow_6"/>
			<feBlend mode="normal" in="SourceGraphic" in2="effect_dropShadow_6" result="shape"/>
		</filter>
	</defs>
	<g filter="url(#filter_12_3_dd)">
		<rect id="Rectangle 2" x="80.000000" y="389.000000" rx="12.000000" width="217.000000" height="73.000000" fill="#FFFFFF" fill-opacity="1.000000"/>
	</g>
	<path id="1000,000 Happy Clients" d="M95.8818 419L95.8818 417.571L98.2676 417.571L98.2676 411.002L95.957 412.444L95.957 410.934L98.3701 409.368L100.188 409.368L100.188 417.571L102.396 417.571L102.396 419L95.8818 419ZM109.998 414.181Q109.998 416.621 109.161 417.879Q108.323 419.137 106.648 419.137Q103.34 419.137 103.34 414.181Q103.34 412.451 103.702 411.357Q104.064 410.264 104.789 409.744Q105.514 409.225 106.703 409.225Q108.412 409.225 109.205 410.462Q109.998 411.699 109.998 414.181ZM108.07 414.181Q108.07 412.848 107.94 412.109Q107.811 411.371 107.523 411.05Q107.236 410.729 106.689 410.729Q106.108 410.729 105.811 411.053Q105.514 411.378 105.387 412.113Q105.261 412.848 105.261 414.181Q105.261 415.5 105.394 416.242Q105.527 416.983 105.818 417.305Q106.108 417.626 106.662 417.626Q107.209 417.626 107.506 417.288Q107.804 416.949 107.937 416.204Q108.07 415.459 108.07 414.181ZM117.784 414.181Q117.784 416.621 116.947 417.879Q116.109 419.137 114.435 419.137Q111.126 419.137 111.126 414.181Q111.126 412.451 111.488 411.357Q111.851 410.264 112.575 409.744Q113.3 409.225 114.489 409.225Q116.198 409.225 116.991 410.462Q117.784 411.699 117.784 414.181ZM115.856 414.181Q115.856 412.848 115.727 412.109Q115.597 411.371 115.31 411.05Q115.022 410.729 114.476 410.729Q113.895 410.729 113.597 411.053Q113.3 411.378 113.173 412.113Q113.047 412.848 113.047 414.181Q113.047 415.5 113.18 416.242Q113.313 416.983 113.604 417.305Q113.895 417.626 114.448 417.626Q114.995 417.626 115.292 417.288Q115.59 416.949 115.723 416.204Q115.856 415.459 115.856 414.181ZM125.57 414.181Q125.57 416.621 124.733 417.879Q123.896 419.137 122.221 419.137Q118.912 419.137 118.912 414.181Q118.912 412.451 119.274 411.357Q119.637 410.264 120.361 409.744Q121.086 409.225 122.275 409.225Q123.984 409.225 124.777 410.462Q125.57 411.699 125.57 414.181ZM123.643 414.181Q123.643 412.848 123.513 412.109Q123.383 411.371 123.096 411.05Q122.809 410.729 122.262 410.729Q121.681 410.729 121.383 411.053Q121.086 411.378 120.959 412.113Q120.833 412.848 120.833 414.181Q120.833 415.5 120.966 416.242Q121.1 416.983 121.39 417.305Q121.681 417.626 122.234 417.626Q122.781 417.626 123.079 417.288Q123.376 416.949 123.509 416.204Q123.643 415.459 123.643 414.181ZM129.098 418.549Q129.098 419.369 128.923 419.998Q128.749 420.627 128.359 421.167L127.095 421.167Q127.498 420.682 127.751 420.101Q128.004 419.52 128.004 419L127.122 419L127.122 416.915L129.098 416.915L129.098 418.549ZM137.246 414.181Q137.246 416.621 136.409 417.879Q135.571 419.137 133.896 419.137Q130.588 419.137 130.588 414.181Q130.588 412.451 130.95 411.357Q131.312 410.264 132.037 409.744Q132.762 409.225 133.951 409.225Q135.66 409.225 136.453 410.462Q137.246 411.699 137.246 414.181ZM135.318 414.181Q135.318 412.848 135.188 412.109Q135.059 411.371 134.771 411.05Q134.484 410.729 133.938 410.729Q133.356 410.729 133.059 411.053Q132.762 411.378 132.635 412.113Q132.509 412.848 132.509 414.181Q132.509 415.5 132.642 416.242Q132.775 416.983 133.066 417.305Q133.356 417.626 133.91 417.626Q134.457 417.626 134.754 417.288Q135.052 416.949 135.185 416.204Q135.318 415.459 135.318 414.181ZM145.032 414.181Q145.032 416.621 144.195 417.879Q143.357 419.137 141.683 419.137Q138.374 419.137 138.374 414.181Q138.374 412.451 138.736 411.357Q139.099 410.264 139.823 409.744Q140.548 409.225 141.737 409.225Q143.446 409.225 144.239 410.462Q145.032 411.699 145.032 414.181ZM143.104 414.181Q143.104 412.848 142.975 412.109Q142.845 411.371 142.558 411.05Q142.271 410.729 141.724 410.729Q141.143 410.729 140.845 411.053Q140.548 411.378 140.421 412.113Q140.295 412.848 140.295 414.181Q140.295 415.5 140.428 416.242Q140.562 416.983 140.852 417.305Q141.143 417.626 141.696 417.626Q142.243 417.626 142.541 417.288Q142.838 416.949 142.971 416.204Q143.104 415.459 143.104 414.181ZM152.818 414.181Q152.818 416.621 151.981 417.879Q151.144 419.137 149.469 419.137Q146.16 419.137 146.16 414.181Q146.16 412.451 146.522 411.357Q146.885 410.264 147.609 409.744Q148.334 409.225 149.523 409.225Q151.232 409.225 152.025 410.462Q152.818 411.699 152.818 414.181ZM150.891 414.181Q150.891 412.848 150.761 412.109Q150.631 411.371 150.344 411.05Q150.057 410.729 149.51 410.729Q148.929 410.729 148.631 411.053Q148.334 411.378 148.208 412.113Q148.081 412.848 148.081 414.181Q148.081 415.5 148.214 416.242Q148.348 416.983 148.638 417.305Q148.929 417.626 149.482 417.626Q150.029 417.626 150.327 417.288Q150.624 416.949 150.757 416.204Q150.891 415.459 150.891 414.181ZM164.433 419L164.433 414.871L160.235 414.871L160.235 419L158.219 419L158.219 409.368L160.235 409.368L160.235 413.203L164.433 413.203L164.433 409.368L166.449 409.368L166.449 419L164.433 419ZM170.079 419.137Q169.006 419.137 168.404 418.552Q167.803 417.968 167.803 416.908Q167.803 415.76 168.551 415.158Q169.3 414.557 170.722 414.543L172.314 414.516L172.314 414.14Q172.314 413.415 172.062 413.063Q171.809 412.711 171.234 412.711Q170.701 412.711 170.452 412.954Q170.202 413.196 170.141 413.757L168.138 413.661Q168.322 412.581 169.125 412.024Q169.929 411.467 171.316 411.467Q172.718 411.467 173.477 412.157Q174.235 412.848 174.235 414.119L174.235 416.812Q174.235 417.435 174.375 417.67Q174.516 417.906 174.844 417.906Q175.062 417.906 175.268 417.865L175.268 418.904Q175.097 418.945 174.96 418.979Q174.823 419.014 174.687 419.034Q174.55 419.055 174.396 419.068Q174.242 419.082 174.037 419.082Q173.312 419.082 172.967 418.727Q172.622 418.371 172.554 417.681L172.513 417.681Q171.706 419.137 170.079 419.137ZM172.314 415.575L171.33 415.589Q170.66 415.616 170.38 415.736Q170.1 415.855 169.953 416.102Q169.806 416.348 169.806 416.758Q169.806 417.284 170.048 417.541Q170.291 417.797 170.694 417.797Q171.146 417.797 171.518 417.551Q171.891 417.305 172.103 416.871Q172.314 416.437 172.314 415.951L172.314 415.575ZM183.156 415.268Q183.156 417.12 182.415 418.128Q181.673 419.137 180.319 419.137Q179.54 419.137 178.962 418.798Q178.385 418.46 178.077 417.824L178.036 417.824Q178.077 418.029 178.077 419.068L178.077 421.905L176.156 421.905L176.156 413.306Q176.156 412.26 176.102 411.604L177.968 411.604Q178.002 411.727 178.026 412.089Q178.05 412.451 178.05 412.807L178.077 412.807Q178.727 411.446 180.442 411.446Q181.734 411.446 182.445 412.441Q183.156 413.436 183.156 415.268ZM181.153 415.268Q181.153 412.779 179.629 412.779Q178.863 412.779 178.457 413.449Q178.05 414.119 178.05 415.322Q178.05 416.519 178.457 417.171Q178.863 417.824 179.615 417.824Q181.153 417.824 181.153 415.268ZM191.708 415.268Q191.708 417.12 190.966 418.128Q190.225 419.137 188.871 419.137Q188.092 419.137 187.514 418.798Q186.937 418.46 186.629 417.824L186.588 417.824Q186.629 418.029 186.629 419.068L186.629 421.905L184.708 421.905L184.708 413.306Q184.708 412.26 184.653 411.604L186.52 411.604Q186.554 411.727 186.578 412.089Q186.602 412.451 186.602 412.807L186.629 412.807Q187.278 411.446 188.994 411.446Q190.286 411.446 190.997 412.441Q191.708 413.436 191.708 415.268ZM189.705 415.268Q189.705 412.779 188.181 412.779Q187.415 412.779 187.008 413.449Q186.602 414.119 186.602 415.322Q186.602 416.519 187.008 417.171Q187.415 417.824 188.167 417.824Q189.705 417.824 189.705 415.268ZM194.217 421.905Q193.526 421.905 193.007 421.816L193.007 420.449Q193.369 420.504 193.67 420.504Q194.08 420.504 194.35 420.374Q194.62 420.244 194.835 419.943Q195.051 419.643 195.317 418.925L192.392 411.604L194.422 411.604L195.584 415.069Q195.857 415.814 196.274 417.353L196.445 416.703L196.89 415.097L197.983 411.604L199.993 411.604L197.067 419.39Q196.479 420.812 195.847 421.358Q195.215 421.905 194.217 421.905ZM209.393 417.551Q211.218 417.551 211.929 415.719L213.686 416.382Q213.118 417.776 212.021 418.457Q210.924 419.137 209.393 419.137Q207.068 419.137 205.8 417.821Q204.532 416.505 204.532 414.14Q204.532 411.768 205.756 410.496Q206.979 409.225 209.304 409.225Q210.999 409.225 212.065 409.905Q213.132 410.585 213.562 411.904L211.785 412.39Q211.56 411.665 210.9 411.238Q210.24 410.811 209.345 410.811Q207.978 410.811 207.27 411.658Q206.562 412.506 206.562 414.14Q206.562 415.801 207.291 416.676Q208.019 417.551 209.393 417.551ZM215.046 419L215.046 408.855L216.967 408.855L216.967 419L215.046 419ZM218.936 410.271L218.936 408.855L220.856 408.855L220.856 410.271L218.936 410.271ZM218.936 419L218.936 411.604L220.856 411.604L220.856 419L218.936 419ZM225.854 419.137Q224.186 419.137 223.29 418.149Q222.395 417.161 222.395 415.268Q222.395 413.436 223.304 412.451Q224.213 411.467 225.881 411.467Q227.474 411.467 228.314 412.523Q229.155 413.579 229.155 415.616L229.155 415.671L224.411 415.671Q224.411 416.751 224.811 417.301Q225.211 417.852 225.949 417.852Q226.968 417.852 227.234 416.97L229.046 417.127Q228.26 419.137 225.854 419.137ZM225.854 412.677Q225.177 412.677 224.811 413.148Q224.445 413.62 224.425 414.468L227.296 414.468Q227.241 413.572 226.865 413.125Q226.489 412.677 225.854 412.677ZM235.403 419L235.403 414.851Q235.403 412.902 234.084 412.902Q233.387 412.902 232.959 413.5Q232.532 414.099 232.532 415.035L232.532 419L230.611 419L230.611 413.258Q230.611 412.663 230.594 412.284Q230.577 411.904 230.557 411.604L232.389 411.604Q232.409 411.733 232.443 412.297Q232.478 412.861 232.478 413.073L232.505 413.073Q232.895 412.226 233.482 411.843Q234.07 411.46 234.884 411.46Q236.06 411.46 236.688 412.185Q237.317 412.909 237.317 414.304L237.317 419L235.403 419ZM241.057 419.123Q240.209 419.123 239.751 418.662Q239.293 418.2 239.293 417.264L239.293 412.902L238.356 412.902L238.356 411.604L239.389 411.604L239.99 409.867L241.193 409.867L241.193 411.604L242.595 411.604L242.595 412.902L241.193 412.902L241.193 416.744Q241.193 417.284 241.398 417.541Q241.604 417.797 242.034 417.797Q242.26 417.797 242.677 417.701L242.677 418.891Q241.966 419.123 241.057 419.123ZM250.06 416.84Q250.06 417.913 249.181 418.525Q248.303 419.137 246.751 419.137Q245.227 419.137 244.417 418.655Q243.606 418.173 243.34 417.154L245.028 416.901Q245.172 417.428 245.524 417.646Q245.876 417.865 246.751 417.865Q247.558 417.865 247.927 417.66Q248.296 417.455 248.296 417.018Q248.296 416.662 247.999 416.454Q247.701 416.245 246.99 416.102Q245.363 415.78 244.796 415.503Q244.229 415.227 243.931 414.786Q243.634 414.345 243.634 413.702Q243.634 412.643 244.451 412.051Q245.268 411.46 246.765 411.46Q248.084 411.46 248.887 411.973Q249.69 412.485 249.889 413.456L248.187 413.634Q248.104 413.183 247.783 412.96Q247.462 412.738 246.765 412.738Q246.081 412.738 245.739 412.913Q245.397 413.087 245.397 413.497Q245.397 413.818 245.661 414.006Q245.924 414.194 246.546 414.317Q247.414 414.495 248.087 414.683Q248.761 414.871 249.167 415.131Q249.574 415.391 249.817 415.797Q250.06 416.204 250.06 416.84Z" fill="#000000" fill-opacity="1.000000" fill-rule="evenodd"/>
	<path id="4.9" d="M122.677 441.318L122.677 443L121.106 443L121.106 441.318L117.351 441.318L117.351 440.082L120.837 434.744L122.677 434.744L122.677 440.094L123.778 440.094L123.778 441.318L122.677 441.318ZM121.106 437.393Q121.106 437.076 121.127 436.707Q121.147 436.338 121.159 436.232Q121.007 436.561 120.608 437.182L118.692 440.094L121.106 440.094L121.106 437.393ZM124.657 443L124.657 441.213L126.351 441.213L126.351 443L124.657 443ZM133.405 438.74Q133.405 440.938 132.603 442.027Q131.8 443.117 130.323 443.117Q129.233 443.117 128.615 442.651Q127.997 442.186 127.739 441.178L129.286 440.961Q129.515 441.822 130.341 441.822Q131.032 441.822 131.404 441.16Q131.776 440.498 131.788 439.197Q131.565 439.637 131.059 439.886Q130.552 440.135 129.966 440.135Q128.876 440.135 128.234 439.394Q127.593 438.652 127.593 437.387Q127.593 436.086 128.346 435.354Q129.099 434.621 130.476 434.621Q131.958 434.621 132.682 435.649Q133.405 436.678 133.405 438.74ZM131.665 437.586Q131.665 436.818 131.328 436.364Q130.991 435.91 130.435 435.91Q129.89 435.91 129.576 436.306Q129.263 436.701 129.263 437.398Q129.263 438.084 129.573 438.497Q129.884 438.91 130.44 438.91Q130.968 438.91 131.316 438.55Q131.665 438.189 131.665 437.586Z" fill="#000000" fill-opacity="1.000000" fill-rule="evenodd"/>
	<path id="(15k Reviews)" d="M144.888 445.484Q144.19 444.658 143.742 443.794Q143.294 442.93 143.08 441.969Q142.866 441.008 142.866 439.9Q142.866 438.775 143.08 437.814Q143.294 436.854 143.745 435.989Q144.196 435.125 144.888 434.305L146.112 434.305Q145.075 435.564 144.595 436.918Q144.114 438.271 144.114 439.895Q144.114 440.967 144.322 441.922Q144.53 442.877 144.973 443.753Q145.415 444.629 146.112 445.484L144.888 445.484ZM152.335 441.992L152.335 443L147.026 443L147.026 441.992L149.112 441.992L149.112 435.881L147.208 437.182L147.208 436.086L149.2 434.744L150.366 434.744L150.366 441.992L152.335 441.992ZM159.067 440.293Q159.067 441.6 158.276 442.358Q157.485 443.117 156.091 443.117Q154.907 443.117 154.187 442.596Q153.466 442.074 153.284 441.084L154.544 440.955Q154.696 441.535 155.092 441.822Q155.487 442.109 156.114 442.109Q156.888 442.109 157.33 441.635Q157.772 441.16 157.772 440.316Q157.772 439.584 157.333 439.133Q156.894 438.682 156.144 438.682Q155.745 438.682 155.405 438.816Q155.065 438.951 154.743 439.256L153.524 439.256L153.8 434.744L158.587 434.744L158.587 435.752L154.942 435.752L154.79 438.189Q155.446 437.662 156.425 437.662Q157.228 437.662 157.822 437.99Q158.417 438.318 158.742 438.907Q159.067 439.496 159.067 440.293ZM161.581 440.703L161.581 443L160.333 443L160.333 434.305L161.581 434.305L161.581 439.584L164.194 436.66L165.606 436.66L163.151 439.303L165.753 443L164.329 443L162.337 440.111L161.581 440.703ZM171.313 439.672L171.313 443L169.995 443L169.995 434.744L173.956 434.744Q175.38 434.744 176.153 435.371Q176.927 435.998 176.927 437.141Q176.927 438.043 176.405 438.67Q175.884 439.297 174.976 439.473L177.284 443L175.772 443L173.704 439.672L171.313 439.672ZM175.597 437.17Q175.597 436.49 175.143 436.139Q174.688 435.787 173.821 435.787L171.313 435.787L171.313 438.635L173.868 438.635Q174.7 438.635 175.148 438.248Q175.597 437.861 175.597 437.17ZM179.546 440.082Q179.546 441.119 179.962 441.67Q180.378 442.221 181.163 442.221Q181.767 442.221 182.136 441.975Q182.505 441.729 182.64 441.324L183.771 441.541Q183.167 443.117 181.14 443.117Q179.722 443.117 178.978 442.276Q178.233 441.436 178.233 439.795Q178.233 438.225 178.983 437.384Q179.733 436.543 181.116 436.543Q182.505 436.543 183.211 437.407Q183.917 438.271 183.917 439.977L183.917 440.082L179.546 440.082ZM182.657 439.203Q182.587 438.277 182.197 437.844Q181.808 437.41 181.099 437.41Q180.396 437.41 179.991 437.885Q179.587 438.359 179.558 439.203L182.657 439.203ZM190.591 436.66L188.229 443L186.741 443L184.45 436.66L185.78 436.66L187.081 440.592Q187.122 440.721 187.225 441.075Q187.327 441.43 187.491 442.004Q187.55 441.828 187.623 441.579Q187.696 441.33 187.772 441.075Q187.849 440.82 187.913 440.633L189.267 436.66L190.591 436.66ZM192.7 434.305L192.7 435.383L191.446 435.383L191.446 434.305L192.7 434.305ZM192.7 436.66L192.7 443L191.446 443L191.446 436.66L192.7 436.66ZM195.331 440.082Q195.331 441.119 195.747 441.67Q196.163 442.221 196.948 442.221Q197.552 442.221 197.921 441.975Q198.29 441.729 198.425 441.324L199.556 441.541Q198.952 443.117 196.925 443.117Q195.507 443.117 194.763 442.276Q194.019 441.436 194.019 439.795Q194.019 438.225 194.769 437.384Q195.519 436.543 196.901 436.543Q198.29 436.543 198.996 437.407Q199.702 438.271 199.702 439.977L199.702 440.082L195.331 440.082ZM198.442 439.203Q198.372 438.277 197.982 437.844Q197.593 437.41 196.884 437.41Q196.181 437.41 195.776 437.885Q195.372 438.359 195.343 439.203L198.442 439.203ZM204.401 438.729L203.294 443L201.899 443L200.171 436.66L201.384 436.66L202.38 440.838Q202.427 441.049 202.491 441.333Q202.556 441.617 202.614 441.922Q202.673 441.641 202.734 441.365Q202.796 441.09 202.866 440.814L203.968 436.66L205.31 436.66L206.376 440.803Q206.435 441.037 206.499 441.318Q206.563 441.6 206.634 441.922Q206.698 441.641 206.763 441.342Q206.827 441.043 206.886 440.791L207.917 436.66L209.112 436.66L207.343 443L205.948 443L204.876 438.723Q204.823 438.512 204.768 438.239Q204.712 437.967 204.642 437.627Q204.601 437.826 204.536 438.14Q204.472 438.453 204.401 438.729ZM214.854 441.213Q214.854 442.121 214.151 442.619Q213.448 443.117 212.194 443.117Q210.97 443.117 210.311 442.719Q209.651 442.32 209.446 441.482L210.548 441.289Q210.683 441.775 211.063 441.998Q211.444 442.221 212.194 442.221Q212.962 442.221 213.313 441.998Q213.665 441.775 213.665 441.318Q213.665 440.967 213.41 440.753Q213.155 440.539 212.569 440.393Q211.96 440.24 211.57 440.135Q211.181 440.029 210.949 439.944Q210.718 439.859 210.577 439.783Q210.155 439.555 209.927 439.215Q209.698 438.875 209.698 438.377Q209.698 437.498 210.343 437.026Q210.987 436.555 212.206 436.555Q213.284 436.555 213.926 436.947Q214.567 437.34 214.731 438.16L213.612 438.289Q213.53 437.879 213.182 437.665Q212.833 437.451 212.206 437.451Q211.532 437.451 211.21 437.645Q210.888 437.838 210.888 438.248Q210.888 438.553 211.09 438.746Q211.292 438.939 211.837 439.062Q212.569 439.232 213.205 439.426Q213.841 439.619 214.146 439.83Q214.485 440.064 214.67 440.396Q214.854 440.727 214.854 441.213ZM215.358 445.484Q216.056 444.635 216.498 443.759Q216.94 442.883 217.148 441.931Q217.356 440.979 217.356 439.895Q217.356 438.266 216.876 436.915Q216.396 435.564 215.358 434.305L216.583 434.305Q217.286 435.131 217.731 435.995Q218.177 436.859 218.391 437.817Q218.604 438.775 218.604 439.883Q218.604 441.002 218.391 441.966Q218.177 442.93 217.731 443.794Q217.286 444.658 216.583 445.484L215.358 445.484Z" fill="#8A898E" fill-opacity="1.000000" fill-rule="evenodd"/>
	<path id="Vector" d="M106.275 438.372C106.093 438.55 106.008 438.807 106.05 439.06L106.68 442.545C106.732 442.84 106.608 443.139 106.361 443.31C106.118 443.487 105.796 443.508 105.532 443.366L102.395 441.73C102.286 441.672 102.165 441.641 102.041 441.637L101.849 441.637C101.782 441.647 101.717 441.668 101.657 441.701L98.5195 443.345C98.3643 443.423 98.1885 443.451 98.0166 443.423C97.5977 443.344 97.3174 442.944 97.3867 442.523L98.0166 439.038C98.0586 438.783 97.9746 438.525 97.791 438.344L95.2334 435.865C95.0186 435.657 94.9443 435.346 95.042 435.065C95.1377 434.784 95.3799 434.579 95.6719 434.533L99.1924 434.023C99.46 433.995 99.6953 433.832 99.8154 433.591L101.367 430.411C101.404 430.34 101.451 430.275 101.509 430.22L101.572 430.17C101.605 430.133 101.645 430.103 101.687 430.078L101.764 430.05L101.884 430L102.183 430C102.449 430.028 102.684 430.187 102.806 430.425L104.378 433.591C104.491 433.823 104.711 433.984 104.966 434.023L108.486 434.533C108.783 434.576 109.032 434.781 109.131 435.065C109.224 435.349 109.144 435.66 108.925 435.865L106.275 438.372Z" fill="#FEBB43" fill-opacity="1.000000" fill-rule="nonzero"/>
	<g filter="url(#filter_13_48_dd)">
		<rect id="Rectangle 2" x="154.000000" rx="12.000000" width="275.000000" height="73.000000" fill="#FFFFFF" fill-opacity="1.000000"/>
	</g>
	<path id="100% Business Growth" d="M227.882 30L227.882 28.5713L230.268 28.5713L230.268 22.002L227.957 23.4443L227.957 21.9336L230.37 20.3682L232.188 20.3682L232.188 28.5713L234.396 28.5713L234.396 30L227.882 30ZM241.998 25.1807Q241.998 27.6211 241.161 28.8789Q240.323 30.1367 238.648 30.1367Q235.34 30.1367 235.34 25.1807Q235.34 23.4512 235.702 22.3574Q236.064 21.2637 236.789 20.7441Q237.514 20.2246 238.703 20.2246Q240.412 20.2246 241.205 21.4619Q241.998 22.6992 241.998 25.1807ZM240.07 25.1807Q240.07 23.8477 239.94 23.1094Q239.811 22.3711 239.523 22.0498Q239.236 21.7285 238.689 21.7285Q238.108 21.7285 237.811 22.0532Q237.514 22.3779 237.387 23.1128Q237.261 23.8477 237.261 25.1807Q237.261 26.5 237.394 27.2417Q237.527 27.9834 237.818 28.3047Q238.108 28.626 238.662 28.626Q239.209 28.626 239.506 28.2876Q239.804 27.9492 239.937 27.2041Q240.07 26.459 240.07 25.1807ZM249.784 25.1807Q249.784 27.6211 248.947 28.8789Q248.109 30.1367 246.435 30.1367Q243.126 30.1367 243.126 25.1807Q243.126 23.4512 243.488 22.3574Q243.851 21.2637 244.575 20.7441Q245.3 20.2246 246.489 20.2246Q248.198 20.2246 248.991 21.4619Q249.784 22.6992 249.784 25.1807ZM247.856 25.1807Q247.856 23.8477 247.727 23.1094Q247.597 22.3711 247.31 22.0498Q247.022 21.7285 246.476 21.7285Q245.895 21.7285 245.597 22.0532Q245.3 22.3779 245.173 23.1128Q245.047 23.8477 245.047 25.1807Q245.047 26.5 245.18 27.2417Q245.313 27.9834 245.604 28.3047Q245.895 28.626 246.448 28.626Q246.995 28.626 247.292 28.2876Q247.59 27.9492 247.723 27.2041Q247.856 26.459 247.856 25.1807ZM262.438 27.0469Q262.438 28.5371 261.822 29.3232Q261.207 30.1094 260.018 30.1094Q258.814 30.1094 258.206 29.3301Q257.598 28.5508 257.598 27.0469Q257.598 25.5156 258.186 24.7466Q258.773 23.9775 260.045 23.9775Q261.275 23.9775 261.856 24.7534Q262.438 25.5293 262.438 27.0469ZM254.132 30L252.724 30L259.013 20.3682L260.441 20.3682L254.132 30ZM253.147 20.2588Q254.371 20.2588 254.962 21.0312Q255.554 21.8037 255.554 23.3213Q255.554 24.8115 254.935 25.6011Q254.316 26.3906 253.113 26.3906Q251.924 26.3906 251.315 25.6079Q250.707 24.8252 250.707 23.3213Q250.707 21.7695 251.295 21.0142Q251.883 20.2588 253.147 20.2588ZM260.968 27.0469Q260.968 25.96 260.759 25.4951Q260.551 25.0303 260.045 25.0303Q259.498 25.0303 259.29 25.502Q259.081 25.9736 259.081 27.0469Q259.081 28.1406 259.3 28.5884Q259.519 29.0361 260.031 29.0361Q260.53 29.0361 260.749 28.5713Q260.968 28.1064 260.968 27.0469ZM254.07 23.3213Q254.07 22.248 253.862 21.7832Q253.653 21.3184 253.147 21.3184Q252.601 21.3184 252.389 21.7798Q252.177 22.2412 252.177 23.3213Q252.177 24.4014 252.399 24.8628Q252.621 25.3242 253.134 25.3242Q253.64 25.3242 253.855 24.8594Q254.07 24.3945 254.07 23.3213ZM276.171 27.252Q276.171 28.5645 275.187 29.2822Q274.202 30 272.452 30L267.633 30L267.633 20.3682L272.042 20.3682Q273.806 20.3682 274.711 20.98Q275.617 21.5918 275.617 22.7881Q275.617 23.6084 275.163 24.1724Q274.708 24.7363 273.778 24.9346Q274.947 25.0713 275.559 25.6694Q276.171 26.2676 276.171 27.252ZM273.587 23.0615Q273.587 22.4121 273.173 22.1387Q272.76 21.8652 271.946 21.8652L269.649 21.8652L269.649 24.251L271.96 24.251Q272.814 24.251 273.201 23.9536Q273.587 23.6562 273.587 23.0615ZM274.147 27.0947Q274.147 25.7412 272.206 25.7412L269.649 25.7412L269.649 28.5029L272.281 28.5029Q273.252 28.5029 273.7 28.1509Q274.147 27.7988 274.147 27.0947ZM279.596 22.6035L279.596 26.7529Q279.596 28.7012 280.908 28.7012Q281.605 28.7012 282.033 28.103Q282.46 27.5049 282.46 26.5684L282.46 22.6035L284.381 22.6035L284.381 28.3457Q284.381 29.2891 284.436 30L282.604 30Q282.521 29.0156 282.521 28.5303L282.487 28.5303Q282.104 29.3711 281.513 29.7539Q280.922 30.1367 280.108 30.1367Q278.933 30.1367 278.304 29.4155Q277.675 28.6943 277.675 27.2998L277.675 22.6035L279.596 22.6035ZM292.57 27.8398Q292.57 28.9131 291.692 29.5249Q290.813 30.1367 289.262 30.1367Q287.737 30.1367 286.927 29.6548Q286.117 29.1729 285.851 28.1543L287.539 27.9014Q287.683 28.4277 288.035 28.6465Q288.387 28.8652 289.262 28.8652Q290.068 28.8652 290.438 28.6602Q290.807 28.4551 290.807 28.0176Q290.807 27.6621 290.509 27.4536Q290.212 27.2451 289.501 27.1016Q287.874 26.7803 287.307 26.5034Q286.739 26.2266 286.442 25.7856Q286.145 25.3447 286.145 24.7021Q286.145 23.6426 286.961 23.0513Q287.778 22.46 289.275 22.46Q290.595 22.46 291.398 22.9727Q292.201 23.4854 292.399 24.4561L290.697 24.6338Q290.615 24.1826 290.294 23.9604Q289.973 23.7383 289.275 23.7383Q288.592 23.7383 288.25 23.9126Q287.908 24.0869 287.908 24.4971Q287.908 24.8184 288.171 25.0063Q288.435 25.1943 289.057 25.3174Q289.925 25.4951 290.598 25.6831Q291.271 25.8711 291.678 26.1309Q292.085 26.3906 292.328 26.7974Q292.57 27.2041 292.57 27.8398ZM294.122 21.2705L294.122 19.8555L296.043 19.8555L296.043 21.2705L294.122 21.2705ZM294.122 30L294.122 22.6035L296.043 22.6035L296.043 30L294.122 30ZM302.804 30L302.804 25.8506Q302.804 23.9023 301.484 23.9023Q300.787 23.9023 300.36 24.5005Q299.933 25.0986 299.933 26.0352L299.933 30L298.012 30L298.012 24.2578Q298.012 23.6631 297.995 23.2837Q297.978 22.9043 297.957 22.6035L299.789 22.6035Q299.81 22.7334 299.844 23.2974Q299.878 23.8613 299.878 24.0732L299.905 24.0732Q300.295 23.2256 300.883 22.8428Q301.471 22.46 302.284 22.46Q303.46 22.46 304.089 23.1846Q304.718 23.9092 304.718 25.3037L304.718 30L302.804 30ZM309.592 30.1367Q307.924 30.1367 307.028 29.1489Q306.133 28.1611 306.133 26.2676Q306.133 24.4355 307.042 23.4512Q307.951 22.4668 309.619 22.4668Q311.212 22.4668 312.053 23.5229Q312.894 24.5791 312.894 26.6162L312.894 26.6709L308.149 26.6709Q308.149 27.751 308.549 28.3013Q308.949 28.8516 309.688 28.8516Q310.706 28.8516 310.973 27.9697L312.784 28.127Q311.998 30.1367 309.592 30.1367ZM309.592 23.6768Q308.915 23.6768 308.549 24.1484Q308.184 24.6201 308.163 25.4678L311.034 25.4678Q310.979 24.5723 310.604 24.1245Q310.228 23.6768 309.592 23.6768ZM320.584 27.8398Q320.584 28.9131 319.706 29.5249Q318.827 30.1367 317.275 30.1367Q315.751 30.1367 314.941 29.6548Q314.131 29.1729 313.864 28.1543L315.553 27.9014Q315.696 28.4277 316.048 28.6465Q316.4 28.8652 317.275 28.8652Q318.082 28.8652 318.451 28.6602Q318.82 28.4551 318.82 28.0176Q318.82 27.6621 318.523 27.4536Q318.226 27.2451 317.515 27.1016Q315.888 26.7803 315.32 26.5034Q314.753 26.2266 314.456 25.7856Q314.158 25.3447 314.158 24.7021Q314.158 23.6426 314.975 23.0513Q315.792 22.46 317.289 22.46Q318.608 22.46 319.412 22.9727Q320.215 23.4854 320.413 24.4561L318.711 24.6338Q318.629 24.1826 318.308 23.9604Q317.986 23.7383 317.289 23.7383Q316.605 23.7383 316.264 23.9126Q315.922 24.0869 315.922 24.4971Q315.922 24.8184 316.185 25.0063Q316.448 25.1943 317.07 25.3174Q317.938 25.4951 318.612 25.6831Q319.285 25.8711 319.692 26.1309Q320.099 26.3906 320.341 26.7974Q320.584 27.2041 320.584 27.8398ZM328.37 27.8398Q328.37 28.9131 327.492 29.5249Q326.613 30.1367 325.062 30.1367Q323.537 30.1367 322.727 29.6548Q321.917 29.1729 321.65 28.1543L323.339 27.9014Q323.482 28.4277 323.834 28.6465Q324.187 28.8652 325.062 28.8652Q325.868 28.8652 326.237 28.6602Q326.606 28.4551 326.606 28.0176Q326.606 27.6621 326.309 27.4536Q326.012 27.2451 325.301 27.1016Q323.674 26.7803 323.106 26.5034Q322.539 26.2266 322.242 25.7856Q321.944 25.3447 321.944 24.7021Q321.944 23.6426 322.761 23.0513Q323.578 22.46 325.075 22.46Q326.395 22.46 327.198 22.9727Q328.001 23.4854 328.199 24.4561L326.497 24.6338Q326.415 24.1826 326.094 23.9604Q325.772 23.7383 325.075 23.7383Q324.392 23.7383 324.05 23.9126Q323.708 24.0869 323.708 24.4971Q323.708 24.8184 323.971 25.0063Q324.234 25.1943 324.856 25.3174Q325.725 25.4951 326.398 25.6831Q327.071 25.8711 327.478 26.1309Q327.885 26.3906 328.127 26.7974Q328.37 27.2041 328.37 27.8398ZM338.344 28.5576Q339.13 28.5576 339.868 28.3286Q340.606 28.0996 341.01 27.7441L341.01 26.4111L338.658 26.4111L338.658 24.9209L342.855 24.9209L342.855 28.4619Q342.09 29.248 340.863 29.6924Q339.636 30.1367 338.289 30.1367Q335.938 30.1367 334.673 28.8345Q333.408 27.5322 333.408 25.1396Q333.408 22.7607 334.68 21.4927Q335.951 20.2246 338.337 20.2246Q341.728 20.2246 342.65 22.7334L340.791 23.2939Q340.49 22.5625 339.848 22.1865Q339.205 21.8105 338.337 21.8105Q336.915 21.8105 336.177 22.6719Q335.438 23.5332 335.438 25.1396Q335.438 26.7734 336.201 27.6655Q336.963 28.5576 338.344 28.5576ZM344.701 30L344.701 24.3398Q344.701 23.7314 344.684 23.3247Q344.667 22.918 344.646 22.6035L346.479 22.6035Q346.499 22.7266 346.533 23.3521Q346.567 23.9775 346.567 24.1826L346.595 24.1826Q346.875 23.4033 347.094 23.0854Q347.312 22.7676 347.613 22.6138Q347.914 22.46 348.365 22.46Q348.734 22.46 348.96 22.5625L348.96 24.1689Q348.495 24.0664 348.14 24.0664Q347.422 24.0664 347.022 24.6475Q346.622 25.2285 346.622 26.3701L346.622 30L344.701 30ZM357.177 26.2949Q357.177 28.0928 356.179 29.1147Q355.181 30.1367 353.417 30.1367Q351.688 30.1367 350.703 29.1113Q349.719 28.0859 349.719 26.2949Q349.719 24.5107 350.703 23.4888Q351.688 22.4668 353.458 22.4668Q355.27 22.4668 356.223 23.4546Q357.177 24.4424 357.177 26.2949ZM355.167 26.2949Q355.167 24.9756 354.736 24.3809Q354.306 23.7861 353.485 23.7861Q351.735 23.7861 351.735 26.2949Q351.735 27.5322 352.163 28.1782Q352.59 28.8242 353.396 28.8242Q355.167 28.8242 355.167 26.2949ZM366.699 30L364.669 30L363.493 25.4883Q363.411 25.1807 363.172 23.9707L362.816 25.502L361.627 30L359.597 30L357.683 22.6035L359.487 22.6035L360.704 28.2568L360.8 27.751L360.971 26.9512L362.133 22.6035L364.19 22.6035L365.325 26.9512Q365.421 27.3066 365.605 28.2568L365.797 27.3545L366.863 22.6035L368.641 22.6035L366.699 30ZM371.484 30.123Q370.637 30.123 370.179 29.6616Q369.721 29.2002 369.721 28.2637L369.721 23.9023L368.784 23.9023L368.784 22.6035L369.816 22.6035L370.418 20.8672L371.621 20.8672L371.621 22.6035L373.022 22.6035L373.022 23.9023L371.621 23.9023L371.621 27.7441Q371.621 28.2842 371.826 28.5405Q372.031 28.7969 372.462 28.7969Q372.688 28.7969 373.104 28.7012L373.104 29.8906Q372.394 30.123 371.484 30.123ZM376.146 24.0801Q376.536 23.2324 377.124 22.8496Q377.712 22.4668 378.525 22.4668Q379.701 22.4668 380.33 23.1914Q380.959 23.916 380.959 25.3105L380.959 30L379.045 30L379.045 25.8574Q379.045 23.9092 377.726 23.9092Q377.028 23.9092 376.601 24.5073Q376.174 25.1055 376.174 26.042L376.174 30L374.253 30L374.253 19.8555L376.174 19.8555L376.174 22.624Q376.174 23.3691 376.119 24.0801L376.146 24.0801Z" fill="#000000" fill-opacity="1.000000" fill-rule="evenodd"/>
	<path id="4.9" d="M254.677 52.3184L254.677 54L253.106 54L253.106 52.3184L249.351 52.3184L249.351 51.082L252.837 45.7441L254.677 45.7441L254.677 51.0938L255.778 51.0938L255.778 52.3184L254.677 52.3184ZM253.106 48.3926Q253.106 48.0762 253.127 47.707Q253.147 47.3379 253.159 47.2324Q253.007 47.5605 252.608 48.1816L250.692 51.0938L253.106 51.0938L253.106 48.3926ZM256.657 54L256.657 52.2129L258.351 52.2129L258.351 54L256.657 54ZM265.405 49.7402Q265.405 51.9375 264.603 53.0273Q263.8 54.1172 262.323 54.1172Q261.233 54.1172 260.615 53.6514Q259.997 53.1855 259.739 52.1777L261.286 51.9609Q261.515 52.8223 262.341 52.8223Q263.032 52.8223 263.404 52.1602Q263.776 51.498 263.788 50.1973Q263.565 50.6367 263.059 50.8857Q262.552 51.1348 261.966 51.1348Q260.876 51.1348 260.234 50.3936Q259.593 49.6523 259.593 48.3867Q259.593 47.0859 260.346 46.3535Q261.099 45.6211 262.476 45.6211Q263.958 45.6211 264.682 46.6494Q265.405 47.6777 265.405 49.7402ZM263.665 48.5859Q263.665 47.8184 263.328 47.3643Q262.991 46.9102 262.435 46.9102Q261.89 46.9102 261.576 47.3057Q261.263 47.7012 261.263 48.3984Q261.263 49.084 261.573 49.4971Q261.884 49.9102 262.44 49.9102Q262.968 49.9102 263.316 49.5498Q263.665 49.1895 263.665 48.5859Z" fill="#000000" fill-opacity="1.000000" fill-rule="evenodd"/>
	<path id="(1520 Reviews)" d="M276.888 56.4844Q276.19 55.6582 275.742 54.7939Q275.294 53.9297 275.08 52.9688Q274.866 52.0078 274.866 50.9004Q274.866 49.7754 275.08 48.8145Q275.294 47.8535 275.745 46.9893Q276.196 46.125 276.888 45.3047L278.112 45.3047Q277.075 46.5645 276.595 47.918Q276.114 49.2715 276.114 50.8945Q276.114 51.9668 276.322 52.9219Q276.53 53.877 276.973 54.7529Q277.415 55.6289 278.112 56.4844L276.888 56.4844ZM284.335 52.9922L284.335 54L279.026 54L279.026 52.9922L281.112 52.9922L281.112 46.8809L279.208 48.1816L279.208 47.0859L281.2 45.7441L282.366 45.7441L282.366 52.9922L284.335 52.9922ZM291.067 51.293Q291.067 52.5996 290.276 53.3584Q289.485 54.1172 288.091 54.1172Q286.907 54.1172 286.187 53.5957Q285.466 53.0742 285.284 52.084L286.544 51.9551Q286.696 52.5352 287.092 52.8223Q287.487 53.1094 288.114 53.1094Q288.888 53.1094 289.33 52.6348Q289.772 52.1602 289.772 51.3164Q289.772 50.584 289.333 50.1328Q288.894 49.6816 288.144 49.6816Q287.745 49.6816 287.405 49.8164Q287.065 49.9512 286.743 50.2559L285.524 50.2559L285.8 45.7441L290.587 45.7441L290.587 46.752L286.942 46.752L286.79 49.1895Q287.446 48.6621 288.425 48.6621Q289.228 48.6621 289.822 48.9902Q290.417 49.3184 290.742 49.9072Q291.067 50.4961 291.067 51.293ZM297.624 52.9512L297.624 54L292.052 54L292.052 53.1211Q292.327 52.5059 292.72 52.0049Q293.112 51.5039 293.59 51.0674Q294.067 50.6309 294.577 50.2266Q294.876 49.9922 295.116 49.7725Q295.356 49.5527 295.538 49.3594Q295.849 49.0371 296.033 48.6973Q296.218 48.3574 296.218 47.9473Q296.218 47.3145 295.86 46.9746Q295.503 46.6348 294.853 46.6348Q294.226 46.6348 293.842 46.9746Q293.458 47.3145 293.382 47.9473L292.11 47.8477Q292.233 46.8047 292.954 46.2129Q293.675 45.6211 294.847 45.6211Q296.124 45.6211 296.81 46.2158Q297.495 46.8105 297.495 47.9004Q297.495 48.4277 297.264 48.9082Q297.032 49.3887 296.61 49.8457Q296.353 50.1211 295.939 50.4756Q295.526 50.8301 294.987 51.2637Q294.401 51.7383 294.023 52.1455Q293.646 52.5527 293.476 52.9512L297.624 52.9512ZM304.386 49.8691Q304.386 51.9434 303.659 53.0303Q302.933 54.1172 301.503 54.1172Q300.085 54.1172 299.37 53.0391Q298.655 51.9609 298.655 49.8691Q298.655 47.7246 299.344 46.6729Q300.032 45.6211 301.544 45.6211Q303.003 45.6211 303.694 46.6904Q304.386 47.7598 304.386 49.8691ZM303.12 49.8691Q303.12 48.7031 302.968 47.9883Q302.815 47.2734 302.467 46.9482Q302.118 46.623 301.538 46.623Q300.946 46.623 300.586 46.9453Q300.226 47.2676 300.07 47.9824Q299.915 48.6973 299.915 49.8691Q299.915 51.0176 300.076 51.7354Q300.237 52.4531 300.592 52.7812Q300.946 53.1094 301.515 53.1094Q302.37 53.1094 302.745 52.3301Q303.12 51.5508 303.12 49.8691ZM310.438 50.6719L310.438 54L309.12 54L309.12 45.7441L313.081 45.7441Q314.505 45.7441 315.278 46.3711Q316.052 46.998 316.052 48.1406Q316.052 49.043 315.53 49.6699Q315.009 50.2969 314.101 50.4727L316.409 54L314.897 54L312.829 50.6719L310.438 50.6719ZM314.722 48.1699Q314.722 47.4902 314.268 47.1387Q313.813 46.7871 312.946 46.7871L310.438 46.7871L310.438 49.6348L312.993 49.6348Q313.825 49.6348 314.273 49.248Q314.722 48.8613 314.722 48.1699ZM318.671 51.082Q318.671 52.1191 319.087 52.6699Q319.503 53.2207 320.288 53.2207Q320.892 53.2207 321.261 52.9746Q321.63 52.7285 321.765 52.3242L322.896 52.541Q322.292 54.1172 320.265 54.1172Q318.847 54.1172 318.103 53.2764Q317.358 52.4355 317.358 50.7949Q317.358 49.2246 318.108 48.3838Q318.858 47.543 320.241 47.543Q321.63 47.543 322.336 48.4072Q323.042 49.2715 323.042 50.9766L323.042 51.082L318.671 51.082ZM321.782 50.2031Q321.712 49.2773 321.322 48.8438Q320.933 48.4102 320.224 48.4102Q319.521 48.4102 319.116 48.8848Q318.712 49.3594 318.683 50.2031L321.782 50.2031ZM329.716 47.6602L327.354 54L325.866 54L323.575 47.6602L324.905 47.6602L326.206 51.5918Q326.247 51.7207 326.35 52.0752Q326.452 52.4297 326.616 53.0039Q326.675 52.8281 326.748 52.5791Q326.821 52.3301 326.897 52.0752Q326.974 51.8203 327.038 51.6328L328.392 47.6602L329.716 47.6602ZM331.825 45.3047L331.825 46.3828L330.571 46.3828L330.571 45.3047L331.825 45.3047ZM331.825 47.6602L331.825 54L330.571 54L330.571 47.6602L331.825 47.6602ZM334.456 51.082Q334.456 52.1191 334.872 52.6699Q335.288 53.2207 336.073 53.2207Q336.677 53.2207 337.046 52.9746Q337.415 52.7285 337.55 52.3242L338.681 52.541Q338.077 54.1172 336.05 54.1172Q334.632 54.1172 333.888 53.2764Q333.144 52.4355 333.144 50.7949Q333.144 49.2246 333.894 48.3838Q334.644 47.543 336.026 47.543Q337.415 47.543 338.121 48.4072Q338.827 49.2715 338.827 50.9766L338.827 51.082L334.456 51.082ZM337.567 50.2031Q337.497 49.2773 337.107 48.8438Q336.718 48.4102 336.009 48.4102Q335.306 48.4102 334.901 48.8848Q334.497 49.3594 334.468 50.2031L337.567 50.2031ZM343.526 49.7285L342.419 54L341.024 54L339.296 47.6602L340.509 47.6602L341.505 51.8379Q341.552 52.0488 341.616 52.333Q341.681 52.6172 341.739 52.9219Q341.798 52.6406 341.859 52.3652Q341.921 52.0898 341.991 51.8145L343.093 47.6602L344.435 47.6602L345.501 51.8027Q345.56 52.0371 345.624 52.3184Q345.688 52.5996 345.759 52.9219Q345.823 52.6406 345.888 52.3418Q345.952 52.043 346.011 51.791L347.042 47.6602L348.237 47.6602L346.468 54L345.073 54L344.001 49.7227Q343.948 49.5117 343.893 49.2393Q343.837 48.9668 343.767 48.627Q343.726 48.8262 343.661 49.1396Q343.597 49.4531 343.526 49.7285ZM353.979 52.2129Q353.979 53.1211 353.276 53.6191Q352.573 54.1172 351.319 54.1172Q350.095 54.1172 349.436 53.7188Q348.776 53.3203 348.571 52.4824L349.673 52.2891Q349.808 52.7754 350.188 52.998Q350.569 53.2207 351.319 53.2207Q352.087 53.2207 352.438 52.998Q352.79 52.7754 352.79 52.3184Q352.79 51.9668 352.535 51.7529Q352.28 51.5391 351.694 51.3926Q351.085 51.2402 350.695 51.1348Q350.306 51.0293 350.074 50.9443Q349.843 50.8594 349.702 50.7832Q349.28 50.5547 349.052 50.2148Q348.823 49.875 348.823 49.377Q348.823 48.498 349.468 48.0264Q350.112 47.5547 351.331 47.5547Q352.409 47.5547 353.051 47.9473Q353.692 48.3398 353.856 49.1602L352.737 49.2891Q352.655 48.8789 352.307 48.665Q351.958 48.4512 351.331 48.4512Q350.657 48.4512 350.335 48.6445Q350.013 48.8379 350.013 49.248Q350.013 49.5527 350.215 49.7461Q350.417 49.9395 350.962 50.0625Q351.694 50.2324 352.33 50.4258Q352.966 50.6191 353.271 50.8301Q353.61 51.0645 353.795 51.3955Q353.979 51.7266 353.979 52.2129ZM354.483 56.4844Q355.181 55.6348 355.623 54.7588Q356.065 53.8828 356.273 52.9307Q356.481 51.9785 356.481 50.8945Q356.481 49.2656 356.001 47.915Q355.521 46.5645 354.483 45.3047L355.708 45.3047Q356.411 46.1309 356.856 46.9951Q357.302 47.8594 357.516 48.8174Q357.729 49.7754 357.729 50.8828Q357.729 52.002 357.516 52.9658Q357.302 53.9297 356.856 54.7939Q356.411 55.6582 355.708 56.4844L354.483 56.4844Z" fill="#8A898E" fill-opacity="1.000000" fill-rule="evenodd"/>
	<path id="Vector" d="M238.275 49.3725C238.093 49.5503 238.008 49.8074 238.05 50.0596L238.68 53.5446C238.732 53.84 238.608 54.1389 238.361 54.3096C238.118 54.4867 237.796 54.5079 237.532 54.3663L234.395 52.73C234.286 52.6719 234.165 52.6407 234.041 52.6372L233.849 52.6372C233.782 52.6472 233.717 52.6684 233.657 52.701L230.52 54.345C230.364 54.4229 230.188 54.4506 230.017 54.4229C229.598 54.3436 229.317 53.9441 229.387 53.5226L230.017 50.0376C230.059 49.7833 229.975 49.5248 229.791 49.3442L227.233 46.865C227.019 46.6575 226.944 46.3458 227.042 46.0646C227.138 45.7841 227.38 45.5793 227.672 45.5333L231.192 45.0226C231.46 44.995 231.695 44.8321 231.815 44.5912L233.367 41.4108C233.404 41.34 233.451 41.2748 233.509 41.2196L233.572 41.17C233.605 41.1332 233.645 41.1027 233.687 41.0779L233.764 41.0496L233.884 41L234.183 41C234.449 41.0276 234.684 41.187 234.806 41.425L236.378 44.5912C236.491 44.8229 236.711 44.9836 236.966 45.0226L240.486 45.5333C240.783 45.5758 241.032 45.7812 241.131 46.0646C241.224 46.3486 241.144 46.6603 240.925 46.865L238.275 49.3725Z" fill="#FEBB43" fill-opacity="1.000000" fill-rule="nonzero"/>
	<path id="Vector" d="M195.9 19.5606C195.82 20.0606 195.78 20.5606 195.78 21.0606C195.78 25.5606 199.42 29.1986 203.9 29.1986C204.4 29.1986 204.88 29.1406 205.38 29.0606L205.38 45.1986C205.38 51.9806 201.38 56.0006 194.58 56.0006L179.802 56.0006C173 56.0006 169 51.9806 169 45.1986L169 30.4006C169 23.6006 173 19.5606 179.802 19.5606L195.9 19.5606ZM196.302 31.7206C195.76 31.6606 195.222 31.9006 194.9 32.3406L190.062 38.6006L184.52 34.2406C184.18 33.9806 183.78 33.8786 183.38 33.9206C182.982 33.9806 182.622 34.1986 182.38 34.5186L176.462 42.2206L176.34 42.4006C176 43.0386 176.16 43.8586 176.76 44.3006C177.04 44.4806 177.34 44.6006 177.68 44.6006C178.142 44.6206 178.58 44.3786 178.86 44.0006L183.88 37.5386L189.58 41.8206L189.76 41.9386C190.4 42.2786 191.2 42.1206 191.66 41.5186L197.44 34.0606L197.36 34.1006C197.68 33.6606 197.74 33.1006 197.52 32.6006C197.302 32.1006 196.82 31.7606 196.302 31.7206ZM204.181 16C206.84 16 209 18.16 209 20.82C209 23.48 206.84 25.64 204.181 25.64C201.521 25.64 199.36 23.48 199.36 20.82C199.36 18.16 201.521 16 204.181 16Z" fill="#000000" fill-opacity="1.000000" fill-rule="nonzero"/>
</svg>
