<svg width="76.468750" height="57.351425" viewBox="0 0 76.4688 57.3514" fill="none" xmlns="http://www.w3.org/2000/svg" xmlns:xlink="http://www.w3.org/1999/xlink">
	<desc>
			Created with Pixso.
	</desc>
	<defs/>
	<path id="Vector" d="M37.8711 0C47.1318 0 53.5977 6.38144 53.5977 15.5266L53.5977 41.8248C53.5977 50.97 47.1318 57.3514 37.8711 57.3514L15.7256 57.3514C6.46582 57.3514 0 50.97 0 41.8248L0 15.5266C0 6.38144 6.46582 0 15.7256 0L37.8711 0ZM68.6611 9.09587C70.3398 8.24191 72.3086 8.33119 73.9111 9.34042C75.5127 10.3458 76.4688 12.0925 76.4688 14.0023L76.4688 43.3515C76.4688 45.2651 75.5127 47.008 73.9111 48.0133C73.0352 48.5606 72.0566 48.8401 71.0703 48.8401C70.248 48.8401 69.4258 48.646 68.6572 48.254L62.9951 45.3971C60.8994 44.3335 59.5996 42.1986 59.5996 39.8269L59.5996 17.5229C59.5996 15.1474 60.8994 13.0125 62.9951 11.9566L68.6611 9.09587Z" fill="#000000" fill-opacity="1.000000" fill-rule="nonzero"/>
</svg>
