<svg width="76.468750" height="76.468567" viewBox="0 0 76.4688 76.4686" fill="none" xmlns="http://www.w3.org/2000/svg" xmlns:xlink="http://www.w3.org/1999/xlink">
	<desc>
			Created with Pixso.
	</desc>
	<defs/>
	<path id="Vector" d="M56.0859 0C69.0889 0 76.4307 7.3754 76.4688 20.3789L76.4688 56.0897C76.4688 69.0894 69.0889 76.4686 56.0859 76.4686L20.3789 76.4686C7.375 76.4686 0 69.0894 0 56.0897L0 20.3789C0 7.3754 7.375 0 20.3789 0L56.0859 0ZM40.1465 15.7908C39.0713 15.1408 37.7715 15.1408 36.7432 15.7908C35.707 16.4369 35.1377 17.626 35.248 18.8113L35.248 57.772C35.4434 59.4161 36.8154 60.6396 38.4219 60.6396C40.0693 60.6396 41.4424 59.4161 41.5947 57.772L41.5947 18.8113C41.748 17.626 41.1787 16.4369 40.1465 15.7908ZM22.291 28.3316C21.2578 27.6816 19.9541 27.6816 18.9258 28.3316C17.8896 28.9816 17.3203 30.163 17.4346 31.3521L17.4346 57.772C17.584 59.4161 18.96 60.6396 20.6045 60.6396C22.252 60.6396 23.625 59.4161 23.7783 57.772L23.7783 31.3521C23.8965 30.163 23.3193 28.9816 22.291 28.3316ZM57.6914 42.2106C56.6631 41.5607 55.3633 41.5607 54.293 42.2106C53.2568 42.8606 52.6865 44.0038 52.8398 45.2312L52.8398 57.772C52.9932 59.4161 54.3652 60.6396 56.0137 60.6396C57.6191 60.6396 58.9912 59.4161 59.1865 57.772L59.1865 45.2312C59.2979 44.0038 58.7275 42.8606 57.6914 42.2106Z" fill="#000000" fill-opacity="1.000000" fill-rule="nonzero"/>
</svg>
