<svg width="76.468750" height="76.469727" viewBox="0 0 76.4688 76.4697" fill="none" xmlns="http://www.w3.org/2000/svg" xmlns:xlink="http://www.w3.org/1999/xlink">
	<desc>
			Created with Pixso.
	</desc>
	<defs/>
	<path id="Vector" d="M51.4248 6.80685C51.2725 7.76271 51.1953 8.71857 51.1953 9.67442C51.1953 18.2771 58.1543 25.2319 66.7188 25.2319C67.6748 25.2319 68.5928 25.1211 69.5479 24.9681L69.5479 55.8194C69.5479 68.7846 61.9014 76.4697 48.9014 76.4697L20.6504 76.4697C7.64648 76.4697 0 68.7846 0 55.8194L0 27.5298C0 14.5302 7.64648 6.80685 20.6504 6.80685L51.4248 6.80685ZM52.1934 30.0533C51.1572 29.9386 50.1289 30.3974 49.5137 31.2386L40.2646 43.2059L29.6699 34.8708C29.0195 34.3738 28.2549 34.1788 27.4902 34.2591C26.7295 34.3738 26.041 34.7905 25.5791 35.4023L14.2656 50.1263L14.0322 50.4704C13.3818 51.6901 13.6875 53.2577 14.835 54.1027C15.3701 54.4468 15.9434 54.6762 16.5938 54.6762C17.4766 54.7144 18.3145 54.2518 18.8496 53.5291L28.4463 41.1757L39.3428 49.3616L39.6875 49.5872C40.9111 50.2372 42.4404 49.9351 43.3193 48.7843L54.3691 34.5267L54.2158 34.6032C54.8281 33.762 54.9424 32.6915 54.5225 31.7356C54.1055 30.7797 53.1836 30.1298 52.1934 30.0533ZM67.2549 0C72.3398 0 76.4688 4.1293 76.4688 9.21446C76.4688 14.2996 72.3398 18.4289 67.2549 18.4289C62.1689 18.4289 58.04 14.2996 58.04 9.21446C58.04 4.1293 62.1689 0 67.2549 0Z" fill="#000000" fill-opacity="1.000000" fill-rule="nonzero"/>
</svg>
