<svg width="50.000000" height="60.000000" viewBox="0 0 50 60" fill="none" xmlns="http://www.w3.org/2000/svg" xmlns:xlink="http://www.w3.org/1999/xlink">
	<desc>
			Created with Pixso.
	</desc>
	<defs/>
	<path id="Vector" d="M30 10C41.0234 10 50 18.9725 50 30.0116C50 41.0275 41.0234 50 30 50C18.9766 50 10 41.0275 10 30.0116C10 18.9725 18.9766 10 30 10ZM27.7217 22.0598C27.2969 22.0598 26.8916 22.1563 26.5059 22.3493C26.0234 22.6194 25.6367 23.0439 25.4248 23.5456C25.29 23.8929 25.0771 24.9349 25.0771 24.9542C24.8652 26.0926 24.749 27.945 24.749 29.9904C24.749 31.9411 24.8652 33.7144 25.0391 34.8722C25.0576 34.8915 25.2705 36.1843 25.502 36.6281C25.9268 37.4385 26.7568 37.9402 27.6445 37.9402L27.7217 37.9402C28.3008 37.9209 29.5176 37.4192 29.5176 37.3999C31.5635 36.5509 35.5986 33.9074 37.2197 32.1515L37.3359 32.0357C37.5479 31.8234 37.8184 31.4954 37.876 31.4182C38.1855 31.013 38.3398 30.5113 38.3398 30.0116C38.3398 29.4501 38.166 28.9291 37.8379 28.5046C37.7607 28.4274 37.4707 28.0994 37.2012 27.8292C35.6182 26.1312 31.4863 23.3526 29.3242 22.5036C28.9961 22.3705 28.166 22.0791 27.7217 22.0598Z" fill="#5F6064" fill-opacity="1.000000" fill-rule="nonzero"/>
	<path id="Subtract" d="M30 0C13.4316 0 0 13.4315 0 30C0 46.5685 13.4316 60 30 60L30 56C15.6406 56 4 44.3594 4 30C4 15.6406 15.6406 4 30 4L30 0Z" clip-rule="evenodd" fill="#FF6600" fill-opacity="1.000000" fill-rule="evenodd"/>
</svg>
